<svg xmlns="http://www.w3.org/2000/svg" version="1.1" xmlns:xlink="http://www.w3.org/1999/xlink" width="512" height="512" x="0" y="0" viewBox="0 0 682.667 682.667" style="enable-background:new 0 0 512 512" xml:space="preserve" class=""><g><defs><clipPath id="a" clipPathUnits="userSpaceOnUse"><path d="M0 512h512V0H0Z" fill="#9a25bc" opacity="1" data-original="#000000"></path></clipPath></defs><g clip-path="url(#a)" transform="matrix(1.33333 0 0 -1.33333 0 682.667)"><path d="m0 0-35.625 30.198c-3.586 3.036-3.932 8.444-.761 11.912l11.419 12.49a8.284 8.284 0 0 0 11.161.978L.286 44.424a4.142 4.142 0 0 1 5.258.173l30.45 26.75a8.283 8.283 0 0 0 11.643-.701l11.058-12.372a8.283 8.283 0 0 0-.687-11.725L5.42.059A4.142 4.142 0 0 0 0 0Z" style="stroke-width:15;stroke-linecap:round;stroke-linejoin:round;stroke-miterlimit:10;stroke-dasharray:none;stroke-opacity:1" transform="translate(377.41 103.82)" fill="none" stroke="#9a25bc" stroke-width="15" stroke-linecap="round" stroke-linejoin="round" stroke-miterlimit="10" stroke-dasharray="none" stroke-opacity="" data-original="#000000" opacity="1" class=""></path><path d="M0 0c45.747 0 82.833-37.086 82.833-82.833 0-45.748-37.086-82.834-82.833-82.834-45.748 0-82.834 37.086-82.834 82.834C-82.834-37.086-45.748 0 0 0Z" style="stroke-width:15;stroke-linecap:round;stroke-linejoin:round;stroke-miterlimit:10;stroke-dasharray:none;stroke-opacity:1" transform="translate(388.533 222.867)" fill="none" stroke="#9a25bc" stroke-width="15" stroke-linecap="round" stroke-linejoin="round" stroke-miterlimit="10" stroke-dasharray="none" stroke-opacity="" data-original="#000000" opacity="1" class=""></path><path d="M0 0h-28.656c-18.3 0-33.134 14.834-33.134 33.133v389.323c0 18.299 14.834 33.133 33.134 33.133h74.55" style="stroke-width:15;stroke-linecap:round;stroke-linejoin:round;stroke-miterlimit:10;stroke-dasharray:none;stroke-opacity:1" transform="translate(102.423 7.5)" fill="none" stroke="#9a25bc" stroke-width="15" stroke-linecap="round" stroke-linejoin="round" stroke-miterlimit="10" stroke-dasharray="none" stroke-opacity="" data-original="#000000" opacity="1" class=""></path><path d="M0 0v-18.225c0-18.298-14.834-33.133-33.134-33.133h-234.541" style="stroke-width:15;stroke-linecap:round;stroke-linejoin:round;stroke-miterlimit:10;stroke-dasharray:none;stroke-opacity:1" transform="translate(405.099 58.858)" fill="none" stroke="#9a25bc" stroke-width="15" stroke-linecap="round" stroke-linejoin="round" stroke-miterlimit="10" stroke-dasharray="none" stroke-opacity="" data-original="#000000" opacity="1" class=""></path><path d="M0 0h74.547c18.3 0 33.134-14.834 33.134-33.133v-208.714" style="stroke-width:15;stroke-linecap:round;stroke-linejoin:round;stroke-miterlimit:10;stroke-dasharray:none;stroke-opacity:1" transform="translate(297.418 463.09)" fill="none" stroke="#9a25bc" stroke-width="15" stroke-linecap="round" stroke-linejoin="round" stroke-miterlimit="10" stroke-dasharray="none" stroke-opacity="" data-original="#000000" opacity="1" class=""></path><path d="M0 0h-117.099c-8.836 0-16 7.164-16 16v42.269a8 8 0 0 0 8 8H8a8 8 0 0 0 8-8V16C16 7.164 8.836 0 0 0Z" style="stroke-width:15;stroke-linecap:round;stroke-linejoin:round;stroke-miterlimit:10;stroke-dasharray:none;stroke-opacity:1" transform="translate(281.417 413.384)" fill="none" stroke="#9a25bc" stroke-width="15" stroke-linecap="round" stroke-linejoin="round" stroke-miterlimit="10" stroke-dasharray="none" stroke-opacity="" data-original="#000000" opacity="1" class=""></path><path d="M0 0c0 13.724 11.125 24.849 24.849 24.849 13.723 0 24.849-11.125 24.849-24.849" style="stroke-width:15;stroke-linecap:round;stroke-linejoin:round;stroke-miterlimit:10;stroke-dasharray:none;stroke-opacity:1" transform="translate(198.018 479.651)" fill="none" stroke="#9a25bc" stroke-width="15" stroke-linecap="round" stroke-linejoin="round" stroke-miterlimit="10" stroke-dasharray="none" stroke-opacity="" data-original="#000000" opacity="1" class=""></path><path d="M0 0v-16.566" style="stroke-width:15;stroke-linecap:round;stroke-linejoin:round;stroke-miterlimit:10;stroke-dasharray:none;stroke-opacity:1" transform="translate(222.867 429.95)" fill="none" stroke="#9a25bc" stroke-width="15" stroke-linecap="round" stroke-linejoin="round" stroke-miterlimit="10" stroke-dasharray="none" stroke-opacity="" data-original="#000000" opacity="1" class=""></path><path d="M0 0v57.053c0 9.149 7.417 16.566 16.567 16.566h57.985" style="stroke-width:15;stroke-linecap:round;stroke-linejoin:round;stroke-miterlimit:10;stroke-dasharray:none;stroke-opacity:1" transform="translate(73.766 356.334)" fill="none" stroke="#9a25bc" stroke-width="15" stroke-linecap="round" stroke-linejoin="round" stroke-miterlimit="10" stroke-dasharray="none" stroke-opacity="" data-original="#000000" opacity="1" class=""></path><path d="M0 0v-1.66c0-9.149-7.417-16.566-16.566-16.566h-265.066c-9.149 0-16.567 7.417-16.567 16.566v264.135" style="stroke-width:15;stroke-linecap:round;stroke-linejoin:round;stroke-miterlimit:10;stroke-dasharray:none;stroke-opacity:1" transform="translate(371.965 58.858)" fill="none" stroke="#9a25bc" stroke-width="15" stroke-linecap="round" stroke-linejoin="round" stroke-miterlimit="10" stroke-dasharray="none" stroke-opacity="" data-original="#000000" opacity="1" class=""></path><path d="M0 0h57.981c9.15 0 16.567-7.417 16.567-16.566V-208.71" style="stroke-width:15;stroke-linecap:round;stroke-linejoin:round;stroke-miterlimit:10;stroke-dasharray:none;stroke-opacity:1" transform="translate(297.417 429.953)" fill="none" stroke="#9a25bc" stroke-width="15" stroke-linecap="round" stroke-linejoin="round" stroke-miterlimit="10" stroke-dasharray="none" stroke-opacity="" data-original="#000000" opacity="1" class=""></path><path d="M0 0h-149.667a8 8 0 0 0-8 8v17.133a8 8 0 0 0 8 8H0a8 8 0 0 0 8-8V8a8 8 0 0 0-8-8Z" style="stroke-width:15;stroke-linecap:round;stroke-linejoin:round;stroke-miterlimit:10;stroke-dasharray:none;stroke-opacity:1" transform="translate(264.566 231.15)" fill="none" stroke="#9a25bc" stroke-width="15" stroke-linecap="round" stroke-linejoin="round" stroke-miterlimit="10" stroke-dasharray="none" stroke-opacity="" data-original="#000000" opacity="1" class=""></path><path d="M0 0h-17.134a8 8 0 0 0-8 8v17.133a8 8 0 0 0 8 8H0a8 8 0 0 0 8-8V8a8 8 0 0 0-8-8Z" style="stroke-width:15;stroke-linecap:round;stroke-linejoin:round;stroke-miterlimit:10;stroke-dasharray:none;stroke-opacity:1" transform="translate(330.833 231.15)" fill="none" stroke="#9a25bc" stroke-width="15" stroke-linecap="round" stroke-linejoin="round" stroke-miterlimit="10" stroke-dasharray="none" stroke-opacity="" data-original="#000000" opacity="1" class=""></path><path d="M0 0h-149.667a8 8 0 0 0-8 8v17.133a8 8 0 0 0 8 8H0a8 8 0 0 0 8-8V8a8 8 0 0 0-8-8Z" style="stroke-width:15;stroke-linecap:round;stroke-linejoin:round;stroke-miterlimit:10;stroke-dasharray:none;stroke-opacity:1" transform="translate(264.566 164.883)" fill="none" stroke="#9a25bc" stroke-width="15" stroke-linecap="round" stroke-linejoin="round" stroke-miterlimit="10" stroke-dasharray="none" stroke-opacity="" data-original="#000000" opacity="1" class=""></path><path d="M0 0h-149.667a8 8 0 0 0-8 8v17.133a8 8 0 0 0 8 8H0a8 8 0 0 0 8-8V8a8 8 0 0 0-8-8Z" style="stroke-width:15;stroke-linecap:round;stroke-linejoin:round;stroke-miterlimit:10;stroke-dasharray:none;stroke-opacity:1" transform="translate(264.566 98.617)" fill="none" stroke="#9a25bc" stroke-width="15" stroke-linecap="round" stroke-linejoin="round" stroke-miterlimit="10" stroke-dasharray="none" stroke-opacity="" data-original="#000000" opacity="1" class=""></path><path d="M0 0h-12.425a4.142 4.142 0 0 0-4.142 4.142v12.425a8.282 8.282 0 0 1-8.283 8.283h-16.567a8.282 8.282 0 0 1-8.283-8.283V4.142A4.141 4.141 0 0 0-53.842 0h-12.425a8.282 8.282 0 0 1-8.283-8.283V-24.85a8.282 8.282 0 0 1 8.283-8.283h12.425a4.141 4.141 0 0 0 4.142-4.142V-49.7a8.282 8.282 0 0 1 8.283-8.283h16.567a8.282 8.282 0 0 1 8.283 8.283v12.425a4.142 4.142 0 0 0 4.142 4.142H0a8.283 8.283 0 0 1 8.283 8.283v16.567A8.283 8.283 0 0 1 0 0Z" style="stroke-width:15;stroke-linecap:round;stroke-linejoin:round;stroke-miterlimit:10;stroke-dasharray:none;stroke-opacity:1" transform="translate(256.001 355.4)" fill="none" stroke="#9a25bc" stroke-width="15" stroke-linecap="round" stroke-linejoin="round" stroke-miterlimit="10" stroke-dasharray="none" stroke-opacity="" data-original="#000000" opacity="1" class=""></path></g></g></svg>