<svg width="560" height="560" viewBox="0 0 560 560" fill="none" xmlns="http://www.w3.org/2000/svg">
<g filter="url(#filter0_d_30_641)">
<path d="M329.971 1C343.778 1 354.971 12.193 354.971 26V141.766C354.971 143.691 357.056 144.894 358.721 143.932L467.376 81.2005C479.331 74.297 494.621 78.394 501.526 90.3512L551.526 176.954C558.428 188.911 554.331 204.201 542.376 211.104L433.726 273.832C432.061 274.795 432.061 277.2 433.726 278.163L542.453 340.935C554.411 347.84 558.506 363.13 551.603 375.087L501.603 461.69C494.701 473.648 479.411 477.742 467.453 470.84L358.721 408.065C357.056 407.103 354.971 408.305 354.971 410.23V526C354.971 539.807 343.778 551 329.971 551H229.971C216.164 551 204.971 539.807 204.971 526V410.235C204.971 408.31 202.888 407.108 201.221 408.07L92.5688 470.8C80.6116 477.702 65.3218 473.608 58.4181 461.65L8.41808 375.047C1.5146 363.09 5.61158 347.8 17.5688 340.895L126.226 278.163C127.893 277.2 127.893 274.795 126.226 273.832L17.5041 211.062C5.54683 204.158 1.44998 188.868 8.35358 176.911L58.3536 90.3088C65.2571 78.3515 80.5468 74.2545 92.5041 81.1582L201.221 143.926C202.888 144.888 204.971 143.686 204.971 141.761V26C204.971 12.193 216.164 1 229.971 1H329.971Z" fill="#9375B9" stroke="black" stroke-linecap="round"/>
<mask id="path-2-inside-1_30_641" fill="white">
<path d="M244.205 450L233.295 424.797C231.491 420.431 230.188 415.938 229.385 411.317C228.583 406.696 228.182 401.947 228.182 397.069C228.182 391.164 228.866 385.397 230.234 379.768C231.602 374.14 233.759 368.824 236.705 363.821C238.523 360.298 240 356.669 241.136 352.935C242.273 349.201 242.841 345.241 242.841 341.057C242.841 336.425 242.159 332.083 240.795 328.028C239.432 323.977 237.841 319.919 236.023 315.854C234.205 310.976 232.557 305.959 231.08 300.805C229.602 295.653 228.864 290.371 228.864 284.959V219.106C228.864 211.201 226.761 204.482 222.557 198.951C218.352 193.417 213.068 190.65 206.705 190.65C200.795 190.65 195.739 192.886 191.534 197.358C187.33 201.829 185 207.317 184.545 213.821C192.47 217.366 198.998 223.297 204.127 231.614C209.255 239.931 211.818 249.27 211.818 259.63C211.818 273.264 207.841 284.824 199.886 294.309C191.932 303.794 182.273 308.537 170.909 308.537C159.545 308.537 149.886 303.794 141.932 294.309C133.977 284.824 130 273.306 130 259.756C130 247.561 133.239 236.992 139.716 228.049C146.193 219.106 154.318 213.686 164.091 211.789C165 198.78 169.539 187.94 177.707 179.268C185.873 170.596 195.539 166.26 206.705 166.26C208.448 166.26 210.19 166.396 211.931 166.667C213.674 166.938 215.31 167.344 216.84 167.886C226.447 161.111 236.567 156.436 247.201 153.862C257.833 151.287 268.74 150 279.922 150C290.883 150 301.705 151.287 312.386 153.862C323.068 156.436 333.213 161.111 342.819 167.886C344.349 167.344 345.985 166.938 347.728 166.667C349.469 166.396 351.211 166.26 352.955 166.26C364.091 166.26 373.75 170.528 381.932 179.065C390.114 187.602 394.659 198.374 395.568 211.382C405.341 213.279 413.523 218.767 420.114 227.846C426.705 236.924 430 247.561 430 259.756C430 273.306 426.023 284.824 418.068 294.309C410.114 303.794 400.455 308.537 389.091 308.537C377.727 308.537 368.068 303.794 360.114 294.309C352.159 284.824 348.182 273.306 348.182 259.756C348.182 249.187 350.682 239.77 355.682 231.504C360.682 223.238 367.159 217.344 375.114 213.821C374.659 207.046 372.31 201.491 368.067 197.154C363.826 192.818 358.789 190.65 352.955 190.65C346.791 190.65 341.614 193.417 337.423 198.951C333.232 204.482 331.136 211.201 331.136 219.106V284.959C331.136 290.366 330.341 295.644 328.75 300.793C327.159 305.942 325.341 310.962 323.295 315.854C321.705 319.911 320.284 323.967 319.034 328.024C317.784 332.084 317.159 336.432 317.159 341.069C317.159 345.126 317.67 349.119 318.693 353.049C319.716 356.978 321.136 360.569 322.955 363.821C325.909 368.699 328.125 374.012 329.602 379.76C331.08 385.505 331.818 391.316 331.818 397.191C331.818 402.045 331.336 406.772 330.373 411.374C329.411 415.976 328.075 420.45 326.364 424.797L315.455 450L297.045 439.024L307.614 413.821C308.75 411.111 309.659 408.383 310.341 405.638C311.023 402.896 311.364 400 311.364 396.951C311.364 393.293 310.909 389.837 310 386.585C309.091 383.333 307.727 380.217 305.909 377.236C302.727 371.816 300.398 366.091 298.92 360.061C297.443 354.031 296.705 347.875 296.705 341.593C296.705 335.816 297.443 330.285 298.92 325C300.398 319.715 302.273 314.499 304.545 309.35C306.136 305.556 307.557 301.606 308.807 297.5C310.057 293.397 310.682 289.217 310.682 284.959V218.939C310.682 211.991 311.705 205.402 313.75 199.175C315.795 192.95 318.636 187.534 322.273 182.927C315.682 179.946 308.811 177.778 301.661 176.423C294.509 175.068 287.293 174.39 280.014 174.39C272.732 174.39 265.511 175.068 258.352 176.423C251.193 177.778 244.318 179.946 237.727 182.927C241.364 187.534 244.205 192.95 246.25 199.175C248.295 205.402 249.318 211.991 249.318 218.939V284.959C249.318 289.295 249.886 293.496 251.023 297.561C252.159 301.626 253.636 305.556 255.455 309.35C257.5 314.499 259.318 319.715 260.909 325C262.5 330.285 263.295 335.783 263.295 341.496C263.295 347.707 262.473 353.856 260.827 359.943C259.182 366.033 256.823 371.797 253.75 377.236C251.932 380.217 250.625 383.367 249.83 386.687C249.034 390.007 248.636 393.477 248.636 397.098C248.636 400.117 248.92 402.981 249.489 405.691C250.057 408.401 250.909 411.111 252.045 413.821L262.614 439.024L244.205 450ZM170.909 284.146C176.705 284.146 181.562 281.809 185.483 277.134C189.403 272.459 191.364 266.667 191.364 259.756C191.364 252.846 189.403 247.053 185.483 242.378C181.562 237.703 176.705 235.366 170.909 235.366C165.114 235.366 160.256 237.703 156.335 242.378C152.415 247.053 150.455 252.846 150.455 259.756C150.455 266.667 152.415 272.459 156.335 277.134C160.256 281.809 165.114 284.146 170.909 284.146ZM389.091 284.146C394.886 284.146 399.744 281.809 403.665 277.134C407.585 272.459 409.545 266.667 409.545 259.756C409.545 252.846 407.585 247.053 403.665 242.378C399.744 237.703 394.886 235.366 389.091 235.366C383.295 235.366 378.438 237.703 374.517 242.378C370.597 247.053 368.636 252.846 368.636 259.756C368.636 266.667 370.597 272.459 374.517 277.134C378.438 281.809 383.295 284.146 389.091 284.146Z"/>
</mask>
<path d="M244.205 450L233.295 424.797C231.491 420.431 230.188 415.938 229.385 411.317C228.583 406.696 228.182 401.947 228.182 397.069C228.182 391.164 228.866 385.397 230.234 379.768C231.602 374.14 233.759 368.824 236.705 363.821C238.523 360.298 240 356.669 241.136 352.935C242.273 349.201 242.841 345.241 242.841 341.057C242.841 336.425 242.159 332.083 240.795 328.028C239.432 323.977 237.841 319.919 236.023 315.854C234.205 310.976 232.557 305.959 231.08 300.805C229.602 295.653 228.864 290.371 228.864 284.959V219.106C228.864 211.201 226.761 204.482 222.557 198.951C218.352 193.417 213.068 190.65 206.705 190.65C200.795 190.65 195.739 192.886 191.534 197.358C187.33 201.829 185 207.317 184.545 213.821C192.47 217.366 198.998 223.297 204.127 231.614C209.255 239.931 211.818 249.27 211.818 259.63C211.818 273.264 207.841 284.824 199.886 294.309C191.932 303.794 182.273 308.537 170.909 308.537C159.545 308.537 149.886 303.794 141.932 294.309C133.977 284.824 130 273.306 130 259.756C130 247.561 133.239 236.992 139.716 228.049C146.193 219.106 154.318 213.686 164.091 211.789C165 198.78 169.539 187.94 177.707 179.268C185.873 170.596 195.539 166.26 206.705 166.26C208.448 166.26 210.19 166.396 211.931 166.667C213.674 166.938 215.31 167.344 216.84 167.886C226.447 161.111 236.567 156.436 247.201 153.862C257.833 151.287 268.74 150 279.922 150C290.883 150 301.705 151.287 312.386 153.862C323.068 156.436 333.213 161.111 342.819 167.886C344.349 167.344 345.985 166.938 347.728 166.667C349.469 166.396 351.211 166.26 352.955 166.26C364.091 166.26 373.75 170.528 381.932 179.065C390.114 187.602 394.659 198.374 395.568 211.382C405.341 213.279 413.523 218.767 420.114 227.846C426.705 236.924 430 247.561 430 259.756C430 273.306 426.023 284.824 418.068 294.309C410.114 303.794 400.455 308.537 389.091 308.537C377.727 308.537 368.068 303.794 360.114 294.309C352.159 284.824 348.182 273.306 348.182 259.756C348.182 249.187 350.682 239.77 355.682 231.504C360.682 223.238 367.159 217.344 375.114 213.821C374.659 207.046 372.31 201.491 368.067 197.154C363.826 192.818 358.789 190.65 352.955 190.65C346.791 190.65 341.614 193.417 337.423 198.951C333.232 204.482 331.136 211.201 331.136 219.106V284.959C331.136 290.366 330.341 295.644 328.75 300.793C327.159 305.942 325.341 310.962 323.295 315.854C321.705 319.911 320.284 323.967 319.034 328.024C317.784 332.084 317.159 336.432 317.159 341.069C317.159 345.126 317.67 349.119 318.693 353.049C319.716 356.978 321.136 360.569 322.955 363.821C325.909 368.699 328.125 374.012 329.602 379.76C331.08 385.505 331.818 391.316 331.818 397.191C331.818 402.045 331.336 406.772 330.373 411.374C329.411 415.976 328.075 420.45 326.364 424.797L315.455 450L297.045 439.024L307.614 413.821C308.75 411.111 309.659 408.383 310.341 405.638C311.023 402.896 311.364 400 311.364 396.951C311.364 393.293 310.909 389.837 310 386.585C309.091 383.333 307.727 380.217 305.909 377.236C302.727 371.816 300.398 366.091 298.92 360.061C297.443 354.031 296.705 347.875 296.705 341.593C296.705 335.816 297.443 330.285 298.92 325C300.398 319.715 302.273 314.499 304.545 309.35C306.136 305.556 307.557 301.606 308.807 297.5C310.057 293.397 310.682 289.217 310.682 284.959V218.939C310.682 211.991 311.705 205.402 313.75 199.175C315.795 192.95 318.636 187.534 322.273 182.927C315.682 179.946 308.811 177.778 301.661 176.423C294.509 175.068 287.293 174.39 280.014 174.39C272.732 174.39 265.511 175.068 258.352 176.423C251.193 177.778 244.318 179.946 237.727 182.927C241.364 187.534 244.205 192.95 246.25 199.175C248.295 205.402 249.318 211.991 249.318 218.939V284.959C249.318 289.295 249.886 293.496 251.023 297.561C252.159 301.626 253.636 305.556 255.455 309.35C257.5 314.499 259.318 319.715 260.909 325C262.5 330.285 263.295 335.783 263.295 341.496C263.295 347.707 262.473 353.856 260.827 359.943C259.182 366.033 256.823 371.797 253.75 377.236C251.932 380.217 250.625 383.367 249.83 386.687C249.034 390.007 248.636 393.477 248.636 397.098C248.636 400.117 248.92 402.981 249.489 405.691C250.057 408.401 250.909 411.111 252.045 413.821L262.614 439.024L244.205 450ZM170.909 284.146C176.705 284.146 181.562 281.809 185.483 277.134C189.403 272.459 191.364 266.667 191.364 259.756C191.364 252.846 189.403 247.053 185.483 242.378C181.562 237.703 176.705 235.366 170.909 235.366C165.114 235.366 160.256 237.703 156.335 242.378C152.415 247.053 150.455 252.846 150.455 259.756C150.455 266.667 152.415 272.459 156.335 277.134C160.256 281.809 165.114 284.146 170.909 284.146ZM389.091 284.146C394.886 284.146 399.744 281.809 403.665 277.134C407.585 272.459 409.545 266.667 409.545 259.756C409.545 252.846 407.585 247.053 403.665 242.378C399.744 237.703 394.886 235.366 389.091 235.366C383.295 235.366 378.438 237.703 374.517 242.378C370.597 247.053 368.636 252.846 368.636 259.756C368.636 266.667 370.597 272.459 374.517 277.134C378.438 281.809 383.295 284.146 389.091 284.146Z" fill="#563A94" stroke="black" stroke-width="2" mask="url(#path-2-inside-1_30_641)"/>
</g>
<defs>
<filter id="filter0_d_30_641" x="0.5" y="0.5" width="558.956" height="559" filterUnits="userSpaceOnUse" color-interpolation-filters="sRGB">
<feFlood flood-opacity="0" result="BackgroundImageFix"/>
<feColorMatrix in="SourceAlpha" type="matrix" values="0 0 0 0 0 0 0 0 0 0 0 0 0 0 0 0 0 0 127 0" result="hardAlpha"/>
<feOffset dy="4"/>
<feGaussianBlur stdDeviation="2"/>
<feComposite in2="hardAlpha" operator="out"/>
<feColorMatrix type="matrix" values="0 0 0 0 0 0 0 0 0 0 0 0 0 0 0 0 0 0 0.25 0"/>
<feBlend mode="normal" in2="BackgroundImageFix" result="effect1_dropShadow_30_641"/>
<feBlend mode="normal" in="SourceGraphic" in2="effect1_dropShadow_30_641" result="shape"/>
</filter>
</defs>
</svg>
