<svg width="200" height="200" viewBox="0 0 200 200" fill="none" xmlns="http://www.w3.org/2000/svg">
<path d="M80.4023 131.136C76.9523 131.136 74.053 129.945 71.7045 127.561C69.3561 125.18 68.1818 122.263 68.1818 118.811C68.1818 115.361 69.3735 112.462 71.7568 110.114C74.1386 107.765 77.0553 106.591 80.5068 106.591C83.9568 106.591 86.8561 107.783 89.2046 110.166C91.553 112.548 92.7273 115.464 92.7273 118.916C92.7273 122.366 91.5356 125.265 89.1523 127.614C86.7705 129.962 83.8538 131.136 80.4023 131.136ZM137.902 131.136C134.452 131.136 131.553 129.945 129.205 127.561C126.856 125.18 125.682 122.263 125.682 118.811C125.682 115.361 126.873 112.462 129.257 110.114C131.639 107.765 134.555 106.591 138.007 106.591C141.457 106.591 144.356 107.783 146.705 110.166C149.053 112.548 150.227 115.464 150.227 118.916C150.227 122.366 149.036 125.265 146.652 127.614C144.27 129.962 141.354 131.136 137.902 131.136ZM109.091 186.364C130.664 186.364 148.936 178.867 163.907 163.875C178.878 148.883 186.364 130.586 186.364 108.984C186.364 105.116 186.061 101.288 185.455 97.5C184.848 93.7121 184.091 90.2273 183.182 87.0455C180.152 87.803 176.874 88.3333 173.35 88.6364C169.826 88.9394 166.133 89.0909 162.273 89.0909C147.559 89.0909 133.653 86.0606 120.555 80C107.458 73.9394 96.2879 65.303 87.0455 54.0909C81.8939 66.3636 74.5076 77.0833 64.8864 86.25C55.2652 95.4167 44.2424 102.511 31.8182 107.532V109.091C31.8182 130.662 39.3038 148.934 54.275 163.907C69.2477 178.878 87.5197 186.364 109.091 186.364ZM155.5 43.6364C168.833 59.2424 148.712 37.8788 160 43.6364C171.288 49.3939 148.788 75.4545 162.273 75.4545C165.909 75.4545 168.788 75.3788 170.909 75.2273C173.03 75.0758 144.077 82.2576 146.652 81.5C139.834 69.2273 161.856 51.5152 150.114 43.6364C138.371 35.7576 124.697 31.8182 109.091 31.8182C105 31.8182 101.136 32.1212 97.5 32.7273C125.682 26.5909 158.076 42.8788 155.5 43.6364ZM33.8636 91.3636C42 74.5 37.75 64.6591 54.5 63C63.8182 53.3788 35.8803 93.6364 39.8197 80C26.6379 85.9091 55.4924 51.4015 48.75 60.5682C42.0076 69.7348 56.5 70.6818 33.8636 91.3636ZM35.5 47.5C40.0455 37.803 37.197 52.3485 44.7727 44.7727C52.3485 37.197 60.9849 31.1364 70.6818 26.5909C67.803 22.6515 75.0742 62.1235 70.6818 59.775C66.2909 57.4265 67.8076 56 62.5 56C53.6515 56 68.6061 49.8939 62.5 56C56.3939 62.1061 67.3864 67.1515 67.3864 76C67.3864 81.3076 44.1515 50.6091 46.5 55C91.8409 52.725 31.5606 44.6212 35.5 47.5ZM109.091 200C96.5152 200 84.697 197.614 73.6364 192.841C62.5758 188.068 52.9545 181.591 44.7727 173.409C36.5909 165.227 30.1136 155.606 25.3409 144.545C20.5682 133.485 18.1818 121.667 18.1818 109.091C18.1818 104.697 18.4848 100.341 19.0909 96.0227C19.697 91.7045 20.6061 87.5758 21.8182 83.6364C15.303 79.697 10.0379 74.3561 6.02273 67.6136C2.00758 60.8712 0 53.4091 0 45.2273C0 32.6515 4.39394 21.9697 13.1818 13.1818C21.9697 4.39394 32.6515 0 45.2273 0C53.2576 0 60.6439 1.93182 67.3864 5.79545C74.1288 9.65909 79.5455 15 83.6364 21.8182C87.5758 20.6061 91.7045 19.697 96.0227 19.0909C100.341 18.4848 104.697 18.1818 109.091 18.1818C121.667 18.1818 133.485 20.5682 144.545 25.3409C155.606 30.1136 165.227 36.5909 173.409 44.7727C181.591 52.9545 188.068 62.5758 192.841 73.6364C197.614 84.697 200 96.5152 200 109.091C200 121.667 197.614 133.485 192.841 144.545C188.068 155.606 181.591 165.227 173.409 173.409C165.227 181.591 155.606 188.068 144.545 192.841C133.485 197.614 121.667 200 109.091 200Z" fill="#563A94"/>
</svg>
